<svg width="110" height="41" viewBox="0 0 110 41" fill="none" xmlns="http://www.w3.org/2000/svg">
<path d="M12.7008 5.87403C12.7008 5.87403 14.0179 6.94027 14.7863 7.66155C14.7392 7.83404 14.5511 7.91244 14.3315 7.91244H0.34496L0.21952 7.4734H11.5405L12.7008 5.87403ZM5.69184 5.16843C10.4586 4.99595 8.56129 8.7278 6.55424 7.36363C6.47584 6.57963 6.05248 5.74859 5.59776 5.24683L5.69184 5.16843ZM10.8819 12.9614L12.1363 11.8481L14.065 13.6827C13.9239 13.8238 13.7671 13.8708 13.4064 13.8865C11.7286 14.3569 8.95329 14.7646 7.11873 14.9371L7.04033 14.8273C8.34177 14.3569 10.1606 13.5416 11.0701 12.9614H10.8819ZM9.06305 14.3412C9.03169 14.5764 8.87489 14.7019 8.56129 14.7489V17.6184C8.56129 19.1393 8.16929 19.9233 5.55072 20.1272C5.488 19.4216 5.39392 18.9355 5.08032 18.5905C4.7824 18.2769 4.43744 18.0417 3.46528 17.8692V17.6811C3.46528 17.6811 5.50368 17.8065 5.86433 17.8065C6.06816 17.8065 6.14656 17.7438 6.14656 17.5556V14.1217L9.06305 14.3412ZM9.61185 9.01004L10.5997 7.91244L12.7165 9.48044C12.6224 9.60588 12.4342 9.747 12.105 9.8254V11.8638C12.0893 11.9736 10.8976 12.3185 10.1763 12.3185H9.76865V9.01004H9.61185ZM5.08032 11.9736C5.08032 12.1617 4.04544 12.6478 3.12032 12.6478H2.80672V8.11628L5.20576 9.01004H10.631V9.44908H5.08032V11.9736ZM10.8506 11.2366V11.6756H4.0768V11.2366H10.8506ZM11.9168 12.9614V13.4004H1.53664L1.39552 12.9614H11.9168ZM12.8576 14.2472C12.8576 14.2472 14.1747 15.282 14.9587 15.972C14.9274 16.1444 14.7392 16.2228 14.504 16.2228H0.12544L0 15.7838H11.6973L12.8576 14.2472Z" fill="white"/>
<path d="M46.4599 8.55532C46.3501 8.7278 46.0365 8.85324 45.5348 8.61804L46.0208 8.53964C45.2212 9.68428 43.4493 11.4561 42.0538 12.3185L42.0381 12.1304H42.8535C42.7908 13.0555 42.5085 13.5729 42.1479 13.7297L41.3482 11.9108C41.3482 11.9108 41.6775 11.8168 41.8186 11.7227C42.7437 10.923 44.0138 8.571 44.3901 7.30091L46.4599 8.55532ZM45.5818 6.12491C45.5034 6.31307 45.2212 6.46987 44.688 6.28171L45.2055 6.20331C44.4685 7.11275 43.1044 8.35148 42.0538 8.90028V8.7278H42.9005C42.8378 9.6686 42.5556 10.186 42.1949 10.3428L41.3796 8.4926C41.3796 8.4926 41.6461 8.42988 41.7872 8.3358C42.3517 7.80267 43.073 6.03083 43.2455 5.12139L45.5818 6.12491ZM36.6128 8.55532C36.5031 8.74348 36.1895 8.85324 35.6877 8.63372L36.1738 8.55532C35.3427 9.69996 33.4925 11.4718 32.0499 12.3342L32.0343 12.146H32.8339C32.7712 13.0712 32.489 13.5886 32.1283 13.7454L31.3287 11.9265C31.3287 11.9265 31.6736 11.8324 31.8147 11.7384C32.7869 10.9387 34.1511 8.58668 34.5587 7.30091L36.6128 8.55532ZM35.5779 6.14059C35.4995 6.32875 35.2173 6.48555 34.6685 6.29739L35.1859 6.21899C34.4647 7.12843 33.1162 8.35148 32.097 8.93164L32.0813 8.74348H32.9123C32.8496 9.6686 32.5674 10.1704 32.2224 10.3428L31.4227 8.52396C31.4227 8.52396 31.6893 8.44556 31.8304 8.35148C32.3949 7.81835 33.1005 6.06219 33.273 5.15275L35.5779 6.14059ZM38.024 16.7873C37.8986 16.9755 37.6947 17.0382 37.2871 16.9755C35.625 18.3867 33.1005 19.108 31.2503 19.3118L31.1875 19.155C32.6458 18.3396 34.3549 16.803 35.5152 15.1096L38.024 16.7873ZM40.5171 16.0033C47.1812 15.1566 46.7892 20.1428 44.2647 19.202C43.4336 18.1985 41.944 16.9128 40.4544 16.1444L40.5171 16.0033ZM41.7559 11.8638C42.3517 11.8481 43.7472 11.7697 45.1114 11.66L45.1271 11.8481C44.594 12.1774 43.4023 12.8673 42.2106 13.4788L41.7559 11.8638ZM41.6461 8.55532C42.242 8.53964 43.6061 8.46124 44.9076 8.36716L44.9232 8.55532C44.4528 8.8846 43.3396 9.55884 42.2106 10.1704L41.6461 8.55532ZM44.5156 10.2488C47.6045 11.9265 45.8797 14.3256 44.7194 13.0398C44.7821 12.1304 44.5783 11.0641 44.3274 10.3115L44.5156 10.2488ZM31.705 11.9108C32.3479 11.8952 33.8688 11.8011 35.3741 11.6913L35.3898 11.8795C34.7783 12.2244 33.4925 12.9144 32.1597 13.5259L31.705 11.9108ZM31.705 8.571C32.3008 8.55532 33.665 8.47692 34.9664 8.38284L34.9821 8.571C34.5117 8.90028 33.3984 9.57452 32.2695 10.186L31.705 8.571ZM40.7053 13.4945C40.674 13.6984 40.5642 13.8708 40.1251 13.9336V19.594C40.1251 19.7508 39.0746 20.1272 38.1181 20.1272H37.7104V13.2436L40.7053 13.4945ZM44.1236 13.228C44.1236 13.228 45.4407 14.2158 46.2404 14.89C46.1933 15.0625 46.0208 15.1409 45.7856 15.1409H31.5482L31.4227 14.7019H42.9632L44.1236 13.228ZM34.4803 10.2801C37.4909 11.9108 35.8131 14.3256 34.6842 13.0712C34.8096 12.1617 34.5901 11.0798 34.2922 10.3428L34.4803 10.2801ZM40.3447 5.40363C40.2976 5.67019 40.1095 5.81131 39.7645 5.84267C39.4196 6.32875 38.7923 7.03435 38.416 7.48907H37.9927C38.024 6.87755 38.024 5.82699 38.0084 5.12139L40.3447 5.40363ZM39.2157 7.25387L40.0154 6.40715L41.6461 7.64587C41.5677 7.73995 41.4109 7.83404 41.1757 7.89675V12.5851C41.16 12.6948 40.2663 13.0555 39.6548 13.0555H39.3411V7.25387H39.2157ZM38.2435 12.8046C38.2435 12.9771 37.4909 13.3534 36.7539 13.3534H36.5031V6.53259L38.3063 7.25387H40.4231V7.69292H38.2435V12.8046ZM40.2819 11.8638V12.3028H37.2557V11.8638H40.2819ZM40.2819 9.52748V9.96652H37.2557V9.52748H40.2819Z" fill="white"/>
<path d="M71.8301 9.54316H69.8701V6.64235H71.8301V9.54316ZM74.3703 6.64235V9.54316H72.4417V6.64235H74.3703ZM73.0061 14.89C73.0061 14.89 73.9626 15.674 74.5271 16.2228C74.4801 16.3953 74.3233 16.4737 74.1037 16.4737H69.9956L69.8701 16.0347H72.1751L73.0061 14.89ZM63.7863 15.235C64.0372 15.235 64.0999 15.235 64.2724 14.9057C64.6173 14.2785 64.6173 14.2785 67.424 7.41067L67.6592 7.45771C67.1261 9.5118 66.2167 13.2593 66.0442 14.2158C65.9188 14.796 65.8247 15.4075 65.8247 15.8308C65.8717 16.756 66.593 17.242 66.5617 18.716C66.5303 19.5627 65.9188 20.1428 65.0407 20.1428C64.6487 20.1428 64.1783 19.9547 64.0215 19.3275C64.3508 17.6654 64.288 16.0504 63.9117 15.7838C63.6922 15.627 63.41 15.5486 63.0807 15.5172V15.235C63.0807 15.235 63.6138 15.235 63.7863 15.235ZM62.7984 9.0414C67.4397 9.32364 65.762 12.8673 63.8804 11.5972C63.7079 10.7035 63.1748 9.747 62.6887 9.1198L62.7984 9.0414ZM64.0842 5.41931C68.7725 5.85835 67.0321 9.38636 65.1504 8.08491C64.978 7.15979 64.4448 6.17195 63.9588 5.49771L64.0842 5.41931ZM67.6279 8.47692L69.7917 9.2766H74.6212L75.6404 8.11628L77.4436 9.55884C77.3338 9.71564 77.1457 9.84108 76.785 9.9038V19.4686C76.785 19.5784 76.1108 20.0174 75.0602 20.0174H74.7153V9.71564H69.6036V19.594C69.6036 19.7352 68.9921 20.1115 67.9885 20.1115H67.6279V8.47692ZM71.8301 11.1582C71.8301 12.3499 71.6106 14.0276 69.5722 15.0155L69.4311 14.843C70.2308 13.7454 70.2308 12.3342 70.2308 11.1582V9.5118H71.8301V11.1582ZM74.0253 9.5118C74.0253 9.68428 74.0253 9.87244 74.0253 9.99788V12.6008C74.0253 12.7732 74.0567 12.836 74.2292 12.836H74.5428C74.6369 12.836 74.7623 12.8203 74.8407 12.8203C74.9191 12.8203 75.0759 12.8203 75.1386 12.8046C75.2327 12.8046 75.3738 12.7732 75.4836 12.7419H75.6247L75.6874 12.7732C76.0794 12.93 76.2049 13.1025 76.2049 13.4004C76.2049 13.9963 75.7188 14.2315 74.3233 14.2315H73.6804C72.5828 14.2315 72.4573 13.9022 72.4573 12.9614V9.5118H74.0253ZM75.8442 18.1672V18.6062H68.8353V18.1672H75.8442ZM75.8129 5.10571C75.8129 5.10571 76.9732 5.99947 77.6788 6.62667C77.6317 6.79915 77.4593 6.87755 77.2397 6.87755H67.2516L67.1261 6.43851H74.7937L75.8129 5.10571Z" fill="white"/>
<path d="M100.383 5.21547C105.558 5.29387 103.739 9.32364 101.606 7.92811C101.434 6.95595 100.854 5.95243 100.289 5.29387L100.383 5.21547ZM95.4599 7.12843L98.0628 8.00652H97.7335V11.9892C97.7335 14.6078 97.5453 18.026 94.1741 20.1742L94.0487 20.0801C95.3972 17.7124 95.4599 14.6862 95.4599 11.9892V7.12843ZM107.094 6.51691C107.094 6.51691 108.318 7.52043 109.023 8.19468C108.976 8.36716 108.804 8.44556 108.584 8.44556H96.5262V8.00652H106.013L107.094 6.51691ZM106.436 9.6686C106.436 9.6686 107.737 10.7348 108.49 11.4404C108.443 11.6129 108.27 11.6913 108.035 11.6913H102.688V11.2523H105.291L106.436 9.6686ZM104.366 8.85324C104.335 9.07276 104.241 9.22956 103.802 9.30796V14.6548H101.528V8.63372L104.366 8.85324ZM105.918 18.0731V18.5121H99.0663V18.0731H105.918ZM98.251 13.4632L100.525 14.3099H104.899L105.918 13.1652L107.8 14.5921C107.706 14.7332 107.549 14.8273 107.189 14.9057V19.5627C107.189 19.6568 106.514 20.0174 105.37 20.0174H104.978V14.7489H100.368V19.6724C100.368 19.7979 99.7249 20.1428 98.643 20.1428H98.251V13.4632Z" fill="white"/>
<path d="M0.174315 32.8837C0.0581049 32.8837 0 32.8268 0 32.7131C0 32.6596 0.0193683 32.5893 0.0581049 32.5023C0.103298 32.4087 0.142034 32.325 0.174315 32.2514C0.367998 31.8299 0.623013 31.3315 0.939362 30.7561C1.26217 30.1807 1.6463 29.5317 2.09178 28.8091C1.91746 28.8091 1.8303 28.7556 1.8303 28.6486C1.8303 28.5348 1.89164 28.478 2.0143 28.478L2.30483 28.488C2.50497 28.1735 2.67605 27.9093 2.81809 27.6952C2.96012 27.4811 3.0731 27.3138 3.15703 27.1934C3.29907 26.9993 3.45078 26.8053 3.61219 26.6113C3.78004 26.4106 3.96404 26.2165 4.16418 26.0292C4.46762 25.9623 4.77751 25.9155 5.09386 25.8887C5.41666 25.8553 5.7427 25.8385 6.07196 25.8385C6.65301 25.8385 7.05974 25.8686 7.29216 25.9289C7.37609 25.9489 7.43097 25.9723 7.45679 25.9991C7.48907 26.0259 7.50521 26.0627 7.50521 26.1095C7.50521 26.2232 7.45679 26.2801 7.35995 26.2801C7.28248 26.2801 7.13399 26.2634 6.91448 26.2299C6.69497 26.1898 6.35926 26.1697 5.90733 26.1697C5.68782 26.1697 5.44572 26.1831 5.18102 26.2099C4.91632 26.2366 4.62579 26.2768 4.30944 26.3303C4.03829 26.5444 3.49275 27.2636 2.67282 28.488H5.04544C5.14874 28.488 5.20039 28.5415 5.20039 28.6486C5.20039 28.7556 5.14874 28.8091 5.04544 28.8091H2.46946C1.53332 30.2944 0.845749 31.5188 0.406734 32.4823C2.14988 32.0808 3.46692 31.8801 4.35787 31.8801C4.97765 31.8801 5.28754 32.034 5.28754 32.3418C5.28754 32.4488 5.23589 32.5023 5.1326 32.5023C5.04867 32.5023 5.00348 32.4689 4.99702 32.402C4.99056 32.3284 4.93246 32.2815 4.8227 32.2615C4.71941 32.2347 4.55478 32.2213 4.32881 32.2213C4.04474 32.2213 3.72517 32.2447 3.37008 32.2916C3.02145 32.3317 2.647 32.3852 2.24672 32.4522C1.67859 32.5391 1.21697 32.6328 0.861889 32.7332C0.506804 32.8335 0.277612 32.8837 0.174315 32.8837Z" fill="white"/>
<path d="M7.13116 32.7633C7.02786 32.7633 6.97622 32.7198 6.97622 32.6328C6.97622 32.5993 6.98913 32.5592 7.01495 32.5124C7.04078 32.4588 7.06337 32.4154 7.08274 32.3819L7.95431 30.5654C8.32877 29.7759 8.516 29.3377 8.516 29.2507C8.516 29.157 8.56119 29.1102 8.65157 29.1102C8.77424 29.1102 8.83557 29.1771 8.83557 29.3109C8.83557 29.3578 8.80652 29.4581 8.74841 29.612C8.69031 29.7659 8.61606 29.9398 8.52568 30.1339C8.37073 30.4818 8.24161 30.7494 8.13831 30.9367C8.332 30.7026 8.52891 30.4818 8.72905 30.2744C8.92918 30.067 9.13255 29.8696 9.33915 29.6823C9.95248 29.1269 10.4238 28.8493 10.753 28.8493C10.979 28.8493 11.092 28.9597 11.092 29.1805C11.092 29.3812 10.9273 29.8328 10.5981 30.5353C10.2688 31.2445 10.1042 31.6928 10.1042 31.8801C10.1042 31.9671 10.1332 32.0106 10.1914 32.0106C10.2107 32.0106 10.2398 32.0039 10.2785 31.9905C10.3237 31.9704 10.3689 31.9604 10.4141 31.9604C10.5238 31.9604 10.5787 32.0139 10.5787 32.121C10.5787 32.2548 10.4399 32.3217 10.1623 32.3217C10.0332 32.3217 9.93956 32.2916 9.88146 32.2314C9.82335 32.1645 9.7943 32.0775 9.7943 31.9704C9.7943 31.6493 9.95248 31.1609 10.2688 30.5052C10.5852 29.8562 10.7433 29.4648 10.7433 29.331C10.7433 29.2507 10.7143 29.2106 10.6562 29.2106C10.5142 29.2106 10.285 29.3343 9.96862 29.5819C9.62644 29.8495 9.28427 30.1573 8.9421 30.5052C8.59992 30.8531 8.27389 31.2512 7.964 31.6995L7.28611 32.6729C7.24737 32.7332 7.19572 32.7633 7.13116 32.7633Z" fill="white"/>
<path d="M13.9145 28.5582C13.8048 28.5582 13.7499 28.5014 13.7499 28.3876C13.7499 28.3542 13.7725 28.294 13.8177 28.207C13.8629 28.1133 13.9145 28.0197 13.9726 27.926C14.0307 27.8323 14.0759 27.7688 14.1082 27.7353C14.218 27.6082 14.3019 27.5279 14.36 27.4944C14.4246 27.461 14.4827 27.4443 14.5343 27.4443C14.6699 27.4443 14.7377 27.5078 14.7377 27.6349C14.7377 27.6818 14.7086 27.7386 14.6505 27.8056C14.5989 27.8658 14.5375 27.9226 14.4665 27.9762C14.3632 28.0431 14.2987 28.0966 14.2728 28.1367L14.0598 28.4478C14.0533 28.4746 14.0372 28.5014 14.0114 28.5281C13.992 28.5482 13.9597 28.5582 13.9145 28.5582ZM10.496 35.8543C10.3217 35.8543 10.1797 35.7907 10.0699 35.6636C9.95371 35.5432 9.86978 35.3927 9.81813 35.212C9.76003 35.0381 9.73098 34.8708 9.73098 34.7102C9.73098 34.5162 9.75035 34.3389 9.78908 34.1783C9.84073 33.9441 9.92466 33.8271 10.0409 33.8271C10.1442 33.8271 10.1958 33.8772 10.1958 33.9776C10.1958 34.0044 10.1829 34.0412 10.1571 34.088C10.1313 34.1348 10.1119 34.175 10.099 34.2084C10.0602 34.3155 10.0409 34.4526 10.0409 34.6199C10.0409 34.8273 10.0796 35.0247 10.1571 35.212C10.2346 35.406 10.3572 35.503 10.5251 35.503C10.6542 35.503 10.7833 35.4495 10.9124 35.3425C11.0416 35.2354 11.1675 35.0983 11.2901 34.931C11.4063 34.7704 11.5161 34.5998 11.6194 34.4192C11.7162 34.2385 11.7969 34.0713 11.8615 33.9174C11.9519 33.71 12.0423 33.4858 12.1326 33.245C12.223 33.0041 12.3037 32.7733 12.3747 32.5525C12.4522 32.3317 12.5039 32.1544 12.5297 32.0206C12.5813 31.753 12.633 31.4887 12.6846 31.2278C12.7427 30.9602 12.8008 30.6925 12.859 30.4249C12.9687 29.9499 13.0785 29.6187 13.1882 29.4314C13.298 29.244 13.398 29.1504 13.4884 29.1504C13.5336 29.1504 13.5853 29.1704 13.6434 29.2106C13.7079 29.2507 13.7402 29.2976 13.7402 29.3511C13.7402 29.3778 13.6757 29.505 13.5465 29.7324C13.4755 29.8596 13.4206 29.9599 13.3819 30.0335C13.3432 30.1071 13.3173 30.1573 13.3044 30.1841C13.2851 30.2309 13.256 30.3312 13.2173 30.4851C13.1785 30.639 13.1333 30.823 13.0817 31.0371C13.0365 31.2445 12.9881 31.4586 12.9364 31.6794C12.8848 31.9002 12.8364 32.1042 12.7912 32.2916C12.7524 32.4722 12.7169 32.6127 12.6846 32.7131C12.5813 33.061 12.4587 33.4022 12.3166 33.7367C12.1746 34.0713 12.0229 34.3757 11.8615 34.65C11.3902 35.4529 10.935 35.8543 10.496 35.8543Z" fill="white"/>
<path d="M15.7711 32.4622C15.2481 32.4622 14.9867 32.1578 14.9867 31.5489C14.9867 31.2679 15.0512 30.9735 15.1804 30.6658C15.3095 30.358 15.4806 30.0737 15.6936 29.8127C15.9067 29.5451 16.1423 29.3277 16.4006 29.1604C16.6653 28.9931 16.9332 28.9095 17.2043 28.9095C17.4432 28.9095 17.6175 29.0032 17.7273 29.1905C17.837 29.3778 17.8919 29.5852 17.8919 29.8127C17.8919 30.1138 17.8338 30.4216 17.7176 30.736C17.6014 31.0438 17.4432 31.3281 17.2431 31.5891C17.0429 31.85 16.817 32.0608 16.5652 32.2213C16.3134 32.3819 16.0487 32.4622 15.7711 32.4622ZM15.7614 32.141C15.8001 32.141 15.8227 32.1377 15.8292 32.131C16.081 32.0976 16.3134 32.0039 16.5264 31.85C16.7395 31.6961 16.9235 31.5054 17.0784 31.278C17.2398 31.0438 17.3625 30.7929 17.4464 30.5253C17.5304 30.2576 17.5723 29.9934 17.5723 29.7324C17.5723 29.5786 17.5304 29.4581 17.4464 29.3711C17.3625 29.2842 17.256 29.2407 17.1269 29.2407C16.9396 29.2407 16.7395 29.321 16.5264 29.4815C16.3199 29.6421 16.1229 29.8462 15.9357 30.0937C15.7549 30.3413 15.6065 30.6022 15.4902 30.8765C15.374 31.1441 15.3159 31.385 15.3159 31.5991C15.3159 31.9604 15.4644 32.141 15.7614 32.141Z" fill="white"/>
<path d="M19.0444 35.8342C18.6506 35.8342 18.4537 35.5934 18.4537 35.1117C18.4537 34.7035 18.5376 34.3088 18.7055 33.9274C18.7313 33.8605 18.7732 33.8271 18.8313 33.8271C18.9476 33.8271 19.0057 33.8806 19.0057 33.9876C19.0057 34.0144 18.996 34.0479 18.9766 34.088C18.9637 34.1348 18.9476 34.185 18.9282 34.2385C18.883 34.3657 18.8475 34.4995 18.8217 34.64C18.7958 34.7805 18.7829 34.9277 18.7829 35.0815C18.7829 35.2555 18.8055 35.3726 18.8507 35.4328C18.8959 35.493 18.954 35.5231 19.025 35.5231C19.1929 35.5231 19.3898 35.4428 19.6158 35.2823C19.8482 35.1217 20.0871 34.8674 20.3324 34.5195C20.5067 34.272 20.6875 33.9776 20.8747 33.6364C21.0619 33.2952 21.2621 32.9038 21.4751 32.4622C21.7592 31.8801 22.0207 31.288 22.2595 30.6858C22.0981 30.8999 21.9303 31.1073 21.756 31.3081C21.5816 31.5088 21.3944 31.6961 21.1943 31.8701C20.6584 32.3451 20.213 32.5826 19.8579 32.5826C19.4318 32.5826 19.2187 32.3284 19.2187 31.8199C19.2187 31.6392 19.251 31.4218 19.3156 31.1676C19.3866 30.9133 19.4834 30.6223 19.6061 30.2944C19.6255 30.2409 19.6351 30.1974 19.6351 30.164C19.6351 30.1238 19.6448 30.0837 19.6642 30.0435C19.7675 29.8094 19.9386 29.5484 20.1774 29.2608C20.2291 29.2005 20.2743 29.1704 20.313 29.1704C20.4099 29.1704 20.4583 29.244 20.4583 29.3912C19.832 30.348 19.5189 31.1575 19.5189 31.8199C19.5189 32.1009 19.6254 32.2414 19.8385 32.2414C20.0774 32.2414 20.4099 32.0708 20.836 31.7296C21.1394 31.4887 21.4202 31.2177 21.6785 30.9167C21.9367 30.6089 22.1692 30.2911 22.3757 29.9633C22.5178 29.7425 22.6308 29.5484 22.7147 29.3812C22.8051 29.2072 22.86 29.0901 22.8793 29.0299C22.9116 28.9296 22.9568 28.8794 23.0149 28.8794C23.1376 28.8794 23.1989 28.9329 23.1989 29.04C23.1989 29.0935 23.1731 29.1905 23.1214 29.331C23.0762 29.4648 23.0181 29.6254 22.9471 29.8127C22.8438 30.087 22.6953 30.455 22.5016 30.9167C22.308 31.3783 22.0659 31.9269 21.7753 32.5625C21.4138 33.352 21.0587 33.9977 20.7101 34.4995C20.4518 34.8808 20.1678 35.1986 19.8579 35.4529C19.5544 35.7071 19.2833 35.8342 19.0444 35.8342Z" fill="white"/>
<path d="M23.8857 32.8536C23.776 32.8536 23.7211 32.8001 23.7211 32.693C23.7211 32.6863 23.7598 32.6027 23.8373 32.4421C23.9148 32.2815 24.0245 32.044 24.1666 31.7296L24.6604 30.6557C24.8606 30.2208 25.0026 29.8763 25.0865 29.622C25.1769 29.3678 25.2221 29.2039 25.2221 29.1303C25.2221 29.0232 25.2738 28.9697 25.3771 28.9697C25.4804 28.9697 25.532 29.0232 25.532 29.1303C25.532 29.2173 25.503 29.3544 25.4449 29.5418C25.3932 29.7224 25.3061 29.9566 25.1834 30.2443L24.6895 31.4084C26.0388 29.6421 27.0557 28.759 27.74 28.759C27.8691 28.759 27.9692 28.8158 28.0402 28.9296C28.1112 29.0366 28.1467 29.157 28.1467 29.2909C28.1467 29.612 27.924 30.1707 27.4785 30.9668C27.8207 30.6056 28.1661 30.2443 28.5147 29.883C28.8698 29.515 29.2249 29.1537 29.58 28.7991C29.6704 28.7121 29.7446 28.6686 29.8027 28.6686C29.8802 28.6686 29.9448 28.7088 29.9964 28.7891C30.0481 28.8627 30.0739 28.943 30.0739 29.0299C30.0739 29.0968 30.0448 29.1805 29.9867 29.2808C29.9028 29.428 29.8253 29.6053 29.7543 29.8127C29.6833 30.0134 29.6026 30.2409 29.5122 30.4952C29.4089 30.7829 29.3347 31.0338 29.2895 31.2478C29.2443 31.4619 29.2217 31.6359 29.2217 31.7697C29.2217 31.937 29.2604 32.0608 29.3379 32.141C29.4154 32.2146 29.4928 32.2514 29.5703 32.2514C29.7059 32.2514 29.8544 32.2146 30.0158 32.141C30.1772 32.0674 30.3095 31.9938 30.4128 31.9203C30.6194 31.7797 30.8357 31.6058 31.0617 31.3984C31.2876 31.1843 31.5039 30.9702 31.7105 30.7561C31.7363 30.7293 31.7751 30.716 31.8267 30.716C31.9236 30.716 31.972 30.7561 31.972 30.8364C31.972 30.91 31.9268 30.9936 31.8364 31.0873C31.5782 31.3549 31.3457 31.5857 31.1391 31.7797C30.9325 31.9671 30.7356 32.121 30.5484 32.2414C30.4257 32.315 30.2773 32.3919 30.1029 32.4722C29.9286 32.5525 29.7414 32.5927 29.5413 32.5927C29.354 32.5927 29.1959 32.5324 29.0667 32.412C28.9441 32.2916 28.8827 32.034 28.8827 31.6392C28.8827 31.4854 28.9086 31.3047 28.9602 31.0973C29.0119 30.8832 29.0893 30.6457 29.1926 30.3848L29.7059 29.1202L28.3211 30.5654C28.1597 30.7327 28.0273 30.8732 27.924 30.9869C27.8207 31.1007 27.7368 31.1943 27.6722 31.2679C27.5496 31.4017 27.4398 31.5322 27.343 31.6593C27.2526 31.7864 27.1751 31.8968 27.1105 31.9905C27.0653 32.0641 27.0137 32.1009 26.9556 32.1009C26.8458 32.1009 26.791 32.0541 26.791 31.9604C26.791 31.753 26.9717 31.2746 27.3333 30.5253C27.6948 29.7759 27.8756 29.3277 27.8756 29.1805C27.8756 29.1136 27.8046 29.0801 27.6625 29.0801C27.0879 29.0801 26.0646 30.0536 24.5927 32.0005C24.47 32.1812 24.2666 32.4522 23.9826 32.8134C23.9632 32.8402 23.9309 32.8536 23.8857 32.8536Z" fill="white"/>
<path d="M33.3298 32.693C33.0586 32.693 32.8456 32.596 32.6906 32.402C32.5357 32.2079 32.4582 31.9704 32.4582 31.6894C32.4582 31.2077 32.6132 30.7126 32.9231 30.2041C33.007 30.0636 33.1038 29.9265 33.2136 29.7927C33.3233 29.6521 33.4428 29.5183 33.5719 29.3912C33.7656 29.1972 33.969 29.0366 34.182 28.9095C34.3951 28.7824 34.6016 28.7188 34.8018 28.7188C35.131 28.7188 35.2957 28.8794 35.2957 29.2005C35.2957 29.602 35.0697 29.9666 34.6178 30.2944C34.1981 30.5888 33.785 30.736 33.3782 30.736C33.3072 30.736 33.2426 30.7327 33.1845 30.726C33.1329 30.7126 33.0845 30.6992 33.0393 30.6858C32.9747 30.813 32.9166 30.9769 32.865 31.1776C32.8133 31.3783 32.7875 31.5523 32.7875 31.6995C32.7875 32.141 32.9747 32.3618 33.3492 32.3618C33.6526 32.3618 33.9399 32.3083 34.2111 32.2013C34.4822 32.0875 34.805 31.8768 35.1795 31.569C35.4119 31.3817 35.5862 31.2311 35.7024 31.1174C35.8186 31.0036 35.9445 30.8832 36.0801 30.7561C36.1188 30.7293 36.1543 30.716 36.1866 30.716C36.2189 30.716 36.2512 30.726 36.2835 30.7461C36.3157 30.7661 36.3319 30.7962 36.3319 30.8364C36.3319 30.91 36.2673 31.0137 36.1382 31.1475C36.0284 31.2545 35.9122 31.3683 35.7896 31.4887C35.6669 31.6024 35.4732 31.763 35.2085 31.9704C34.9245 32.1979 34.6146 32.3752 34.2788 32.5023C33.9431 32.6295 33.6268 32.693 33.3298 32.693ZM33.3201 30.4149C33.5267 30.4149 33.7236 30.3814 33.9108 30.3145C34.0981 30.2476 34.2756 30.1506 34.4435 30.0235C34.8179 29.7358 35.0052 29.4648 35.0052 29.2106C35.0052 29.0968 34.9374 29.04 34.8018 29.04C34.5435 29.04 34.2433 29.2039 33.9012 29.5317C33.7333 29.6923 33.5945 29.8395 33.4847 29.9733C33.3814 30.1004 33.2846 30.2409 33.1942 30.3948C33.233 30.4082 33.2749 30.4149 33.3201 30.4149Z" fill="white"/>
<path d="M36.3954 32.7633C36.2921 32.7633 36.2405 32.7198 36.2405 32.6328C36.2405 32.5993 36.2534 32.5592 36.2792 32.5124C36.305 32.4588 36.3276 32.4154 36.347 32.3819L37.2186 30.5654C37.593 29.7759 37.7803 29.3377 37.7803 29.2507C37.7803 29.157 37.8255 29.1102 37.9158 29.1102C38.0385 29.1102 38.0998 29.1771 38.0998 29.3109C38.0998 29.3578 38.0708 29.4581 38.0127 29.612C37.9546 29.7659 37.8803 29.9398 37.79 30.1339C37.635 30.4818 37.5059 30.7494 37.4026 30.9367C37.5963 30.7026 37.7932 30.4818 37.9933 30.2744C38.1935 30.067 38.3968 29.8696 38.6034 29.6823C39.2168 29.1269 39.688 28.8493 40.0173 28.8493C40.2433 28.8493 40.3563 28.9597 40.3563 29.1805C40.3563 29.3812 40.1916 29.8328 39.8624 30.5353C39.5331 31.2445 39.3685 31.6928 39.3685 31.8801C39.3685 31.9671 39.3975 32.0106 39.4556 32.0106C39.475 32.0106 39.504 32.0039 39.5428 31.9905C39.588 31.9704 39.6332 31.9604 39.6784 31.9604C39.7881 31.9604 39.843 32.0139 39.843 32.121C39.843 32.2548 39.7042 32.3217 39.4266 32.3217C39.2975 32.3217 39.2038 32.2916 39.1457 32.2314C39.0876 32.1645 39.0586 32.0775 39.0586 31.9704C39.0586 31.6493 39.2168 31.1609 39.5331 30.5052C39.8494 29.8562 40.0076 29.4648 40.0076 29.331C40.0076 29.2507 39.9786 29.2106 39.9205 29.2106C39.7784 29.2106 39.5492 29.3343 39.2329 29.5819C38.8907 29.8495 38.5485 30.1573 38.2064 30.5052C37.8642 30.8531 37.5382 31.2512 37.2283 31.6995L36.5504 32.6729C36.5116 32.7332 36.46 32.7633 36.3954 32.7633Z" fill="white"/>
<path d="M41.5616 33.2048C41.4389 33.2048 41.3776 33.1045 41.3776 32.9038C41.3776 32.6094 41.5357 32.0942 41.8521 31.3582C42.1749 30.6223 42.6526 29.6588 43.2853 28.4679C43.04 28.4679 42.8076 28.5014 42.5881 28.5683C42.375 28.6285 42.262 28.7054 42.2491 28.7991C42.2427 28.8259 42.2265 28.8526 42.2007 28.8794C42.1813 28.8995 42.1491 28.9095 42.1039 28.9095C42.0006 28.9095 41.9489 28.856 41.9489 28.7489C41.9489 28.575 42.0813 28.4311 42.346 28.3174C42.6107 28.2036 42.9819 28.1468 43.4596 28.1468L44.1278 27.0027C44.173 26.9291 44.2215 26.8488 44.2731 26.7618C44.3248 26.6682 44.3829 26.5678 44.4474 26.4607C44.512 26.3671 44.5862 26.3202 44.6702 26.3202C44.7218 26.3202 44.7605 26.337 44.7864 26.3704C44.8122 26.3972 44.8251 26.4273 44.8251 26.4607C44.8251 26.5611 44.6831 26.8287 44.399 27.2636C44.0439 27.8056 43.8535 28.0999 43.8276 28.1468C43.9245 28.1468 44.0697 28.1568 44.2634 28.1769C44.4571 28.1903 44.6863 28.2137 44.951 28.2471C45.0478 28.2538 45.0963 28.304 45.0963 28.3977C45.0963 28.5047 45.0382 28.5582 44.9219 28.5582C44.8768 28.5582 44.7864 28.5516 44.6508 28.5382C44.5152 28.5181 44.37 28.5014 44.215 28.488C44.0601 28.4746 43.9277 28.4713 43.818 28.478L43.6727 28.488C42.3621 30.8765 41.71 32.3618 41.7165 32.9439L41.7262 33.0242V33.0443C41.7262 33.1513 41.6713 33.2048 41.5616 33.2048Z" fill="white"/>
<path d="M48.0954 32.9439C48.0502 32.9439 47.9986 32.9205 47.9405 32.8737C47.8823 32.8268 47.8533 32.7766 47.8533 32.7231C47.8533 32.6629 47.9179 32.509 48.047 32.2615C48.1761 32.0139 48.3827 31.6426 48.6668 31.1475C48.9508 30.6524 49.3221 30.0101 49.7804 29.2206L51.0491 27.0228C51.1201 26.8889 51.2072 26.7317 51.3105 26.5511C51.4138 26.3704 51.5397 26.1563 51.6882 25.9088C51.7269 25.8486 51.7689 25.8185 51.8141 25.8185C51.8593 25.8185 51.9045 25.8419 51.9497 25.8887C51.9949 25.9288 52.0175 25.9723 52.0175 26.0192C52.0175 26.0459 51.8561 26.3437 51.5333 26.9124C51.2105 27.4744 50.723 28.314 50.071 29.4314C49.8256 29.8529 49.5577 30.3179 49.2672 30.8263C48.9831 31.3348 48.6797 31.8868 48.3569 32.4823C50.2291 31.9604 51.6688 31.6995 52.676 31.6995C52.9794 31.6995 53.2312 31.753 53.4314 31.86C53.638 31.9604 53.7413 32.0608 53.7413 32.1611C53.7413 32.2749 53.6864 32.3317 53.5766 32.3317C53.4862 32.3317 53.441 32.2815 53.441 32.1812V32.1511C53.3765 32.1176 53.2667 32.0909 53.1118 32.0708C52.9568 32.0507 52.7793 32.0407 52.5792 32.0407C52.3338 32.0407 52.0562 32.0641 51.7463 32.1109C51.4364 32.1511 51.1201 32.2046 50.7973 32.2715C50.4809 32.3317 50.1839 32.3953 49.9063 32.4622C49.6352 32.5224 49.3769 32.586 49.1316 32.6529C48.8927 32.7265 48.67 32.79 48.4634 32.8435C48.3407 32.8703 48.2503 32.8937 48.1922 32.9138C48.1406 32.9339 48.1083 32.9439 48.0954 32.9439Z" fill="white"/>
<path d="M58.1293 32.8536C57.813 32.8536 57.6548 32.6161 57.6548 32.141C57.6548 31.8868 57.7129 31.579 57.8291 31.2177C57.0479 32.1611 56.4346 32.6328 55.9891 32.6328C55.6211 32.6328 55.4371 32.402 55.4371 31.9403C55.4371 31.7664 55.4629 31.559 55.5146 31.3181C55.5727 31.0705 55.6469 30.8163 55.7373 30.5554C55.8342 30.2944 55.9375 30.0502 56.0472 29.8228C56.157 29.5953 56.2667 29.4113 56.3765 29.2708C56.4152 29.224 56.4636 29.2005 56.5217 29.2005C56.554 29.2005 56.5863 29.2139 56.6186 29.2407C56.6509 29.2608 56.667 29.2942 56.667 29.341C56.667 29.3812 56.6444 29.4381 56.5992 29.5116C56.3087 30.0068 56.1021 30.4383 55.9794 30.8063C55.8245 31.2278 55.747 31.5924 55.747 31.9002C55.747 32.1879 55.818 32.3317 55.9601 32.3317C56.0504 32.3317 56.1699 32.2849 56.3184 32.1912C56.4669 32.0976 56.6186 31.9838 56.7735 31.85C56.9349 31.7095 57.0737 31.579 57.1899 31.4586C57.5127 31.104 57.8033 30.726 58.0615 30.3246C58.1777 30.1372 58.281 29.9566 58.3714 29.7826C58.4683 29.602 58.5554 29.4146 58.6329 29.2206C58.6652 29.147 58.691 29.0935 58.7104 29.06C58.7362 29.0199 58.7717 28.9998 58.8169 28.9998C58.9525 28.9998 59.0202 29.0533 59.0202 29.1604C59.0202 29.2273 58.9977 29.2741 58.9525 29.3009C58.2939 30.6858 57.9647 31.6392 57.9647 32.1611C57.9647 32.3016 57.9776 32.402 58.0034 32.4622C58.0292 32.5157 58.0744 32.5425 58.139 32.5425C58.2294 32.5425 58.3682 32.4823 58.5554 32.3618C58.7491 32.2414 58.9751 32.0574 59.2333 31.8099L60.2501 30.8464C60.3018 30.7929 60.3502 30.7661 60.3954 30.7661C60.4987 30.7661 60.5503 30.8163 60.5503 30.9167C60.5503 31.0036 60.347 31.2378 59.9402 31.6192C59.7659 31.7864 59.611 31.9269 59.4754 32.0407C59.3398 32.1544 59.2139 32.2548 59.0977 32.3418C58.8782 32.5023 58.6845 32.6261 58.5167 32.7131C58.3488 32.8068 58.2197 32.8536 58.1293 32.8536Z" fill="white"/>
<path d="M60.3349 32.7633C60.2251 32.7633 60.1702 32.7097 60.1702 32.6027C60.1702 32.5492 60.2477 32.4354 60.4027 32.2615C60.5641 32.0808 60.8094 31.8467 61.1387 31.559L62.3008 30.5353C62.2556 30.3547 62.2136 30.1941 62.1749 30.0536C62.1426 29.9131 62.1103 29.796 62.078 29.7023C61.9553 29.3143 61.8456 29.0701 61.7488 28.9697C61.71 28.9296 61.6906 28.8861 61.6906 28.8392C61.6906 28.7389 61.7391 28.6887 61.8359 28.6887C61.9844 28.6887 62.1393 28.9229 62.3008 29.3912C62.3524 29.5451 62.4008 29.699 62.446 29.8529C62.4912 30.0067 62.5364 30.1606 62.5816 30.3145C63.2853 29.7124 63.7437 29.2975 63.9567 29.0701C64.0084 29.0165 64.0439 28.9764 64.0633 28.9496C64.0826 28.9229 64.0955 28.8995 64.102 28.8794C64.1343 28.8058 64.1892 28.769 64.2666 28.769C64.3699 28.769 64.4216 28.8192 64.4216 28.9195C64.4216 29.1202 63.8405 29.6923 62.6784 30.6357C62.7559 30.9167 62.8366 31.1809 62.9205 31.4285C63.0045 31.676 63.1013 31.8801 63.2111 32.0407C63.3273 32.1946 63.4564 32.2715 63.5984 32.2715C63.734 32.2715 63.876 32.2347 64.0245 32.1611C64.1795 32.0875 64.3344 31.9972 64.4894 31.8901C64.6443 31.7764 64.7831 31.6694 64.9058 31.569C65.1382 31.3817 65.3125 31.2311 65.4287 31.1174C65.5449 31.0036 65.6708 30.8832 65.8064 30.7561C65.8451 30.7293 65.8807 30.716 65.9129 30.716C65.9452 30.716 65.9775 30.726 66.0098 30.7461C66.0421 30.7661 66.0582 30.7962 66.0582 30.8364C66.0582 30.91 65.9936 31.0137 65.8645 31.1475C65.7548 31.2545 65.6385 31.3683 65.5159 31.4887C65.3932 31.6024 65.1995 31.763 64.9348 31.9704C64.8186 32.0641 64.6798 32.1578 64.5184 32.2514C64.3635 32.3451 64.2053 32.422 64.0439 32.4823C63.8889 32.5425 63.7469 32.5726 63.6178 32.5726C63.3983 32.5726 63.2111 32.4923 63.0561 32.3317C62.9076 32.1645 62.7817 31.9504 62.6784 31.6894C62.5751 31.4285 62.4815 31.1542 62.3976 30.8665L61.4001 31.7496C61.2 31.9236 61.0224 32.0909 60.8675 32.2514C60.7125 32.412 60.577 32.5625 60.4608 32.703C60.4349 32.7432 60.393 32.7633 60.3349 32.7633Z" fill="white"/>
<path d="M69.145 32.8536C68.8287 32.8536 68.6705 32.6161 68.6705 32.141C68.6705 31.8868 68.7286 31.579 68.8448 31.2177C68.0636 32.1611 67.4503 32.6328 67.0048 32.6328C66.6368 32.6328 66.4528 32.402 66.4528 31.9403C66.4528 31.7664 66.4787 31.559 66.5303 31.3181C66.5884 31.0705 66.6627 30.8163 66.753 30.5554C66.8499 30.2944 66.9532 30.0502 67.0629 29.8228C67.1727 29.5953 67.2824 29.4113 67.3922 29.2708C67.4309 29.224 67.4793 29.2005 67.5375 29.2005C67.5697 29.2005 67.602 29.2139 67.6343 29.2407C67.6666 29.2608 67.6827 29.2942 67.6827 29.341C67.6827 29.3812 67.6601 29.4381 67.6149 29.5116C67.3244 30.0068 67.1178 30.4383 66.9951 30.8063C66.8402 31.2278 66.7627 31.5924 66.7627 31.9002C66.7627 32.1879 66.8337 32.3317 66.9758 32.3317C67.0662 32.3317 67.1856 32.2849 67.3341 32.1912C67.4826 32.0976 67.6343 31.9838 67.7892 31.85C67.9506 31.7095 68.0894 31.579 68.2057 31.4586C68.5285 31.104 68.819 30.726 69.0772 30.3246C69.1934 30.1372 69.2967 29.9566 69.3871 29.7826C69.484 29.602 69.5711 29.4146 69.6486 29.2206C69.6809 29.147 69.7067 29.0935 69.7261 29.06C69.7519 29.0199 69.7874 28.9998 69.8326 28.9998C69.9682 28.9998 70.036 29.0533 70.036 29.1604C70.036 29.2273 70.0134 29.2741 69.9682 29.3009C69.3097 30.6858 68.9804 31.6392 68.9804 32.1611C68.9804 32.3016 68.9933 32.402 69.0191 32.4622C69.045 32.5157 69.0901 32.5425 69.1547 32.5425C69.2451 32.5425 69.3839 32.4823 69.5711 32.3618C69.7648 32.2414 69.9908 32.0574 70.249 31.8099L71.2658 30.8464C71.3175 30.7929 71.3659 30.7661 71.4111 30.7661C71.5144 30.7661 71.5661 30.8163 71.5661 30.9167C71.5661 31.0036 71.3627 31.2378 70.956 31.6192C70.7816 31.7864 70.6267 31.9269 70.4911 32.0407C70.3555 32.1544 70.2296 32.2548 70.1134 32.3418C69.8939 32.5023 69.7002 32.6261 69.5324 32.7131C69.3645 32.8068 69.2354 32.8536 69.145 32.8536Z" fill="white"/>
<path d="M71.6121 32.7633C71.5088 32.7633 71.4571 32.7198 71.4571 32.6328C71.4571 32.5927 71.4668 32.5525 71.4862 32.5124C71.512 32.4722 71.5313 32.4388 71.5443 32.412L72.4255 30.5654C72.8 29.7759 72.9872 29.3377 72.9872 29.2507C72.9872 29.157 73.0324 29.1102 73.1228 29.1102C73.2454 29.1102 73.3068 29.1738 73.3068 29.3009C73.3068 29.3678 73.2777 29.4749 73.2196 29.622C73.1615 29.7692 73.0873 29.9398 72.9969 30.1339C72.8419 30.4818 72.7128 30.7494 72.6095 30.9367C72.8032 30.7026 73.0001 30.4818 73.2002 30.2744C73.4004 30.067 73.6038 29.8696 73.8103 29.6823C74.4237 29.1269 74.895 28.8493 75.2242 28.8493C75.4502 28.8493 75.5632 28.9597 75.5632 29.1805C75.5632 29.3946 75.4954 29.5016 75.3598 29.5016C75.2953 29.5016 75.2468 29.4447 75.2146 29.331C75.1952 29.2507 75.15 29.2106 75.079 29.2106C74.9692 29.2106 74.7562 29.3343 74.4398 29.5819C74.0912 29.8495 73.7393 30.1673 73.3843 30.5353C73.0356 30.9033 72.6644 31.3716 72.2706 31.9403L71.7864 32.6428C71.7605 32.6763 71.7347 32.703 71.7089 32.7231C71.6895 32.7499 71.6572 32.7633 71.6121 32.7633Z" fill="white"/>
<path d="M75.8953 35.8342C75.5014 35.8342 75.3045 35.5934 75.3045 35.1117C75.3045 34.7035 75.3885 34.3088 75.5563 33.9274C75.5821 33.8605 75.6241 33.8271 75.6822 33.8271C75.7984 33.8271 75.8565 33.8806 75.8565 33.9876C75.8565 34.0144 75.8468 34.0479 75.8275 34.088C75.8146 34.1348 75.7984 34.185 75.779 34.2385C75.7338 34.3657 75.6983 34.4995 75.6725 34.64C75.6467 34.7805 75.6338 34.9277 75.6338 35.0815C75.6338 35.2555 75.6564 35.3726 75.7016 35.4328C75.7468 35.493 75.8049 35.5231 75.8759 35.5231C76.0437 35.5231 76.2407 35.4428 76.4666 35.2823C76.699 35.1217 76.9379 34.8674 77.1832 34.5195C77.3576 34.272 77.5383 33.9776 77.7256 33.6364C77.9128 33.2952 78.1129 32.9038 78.326 32.4622C78.61 31.8801 78.8715 31.288 79.1104 30.6858C78.949 30.8999 78.7811 31.1073 78.6068 31.3081C78.4325 31.5088 78.2453 31.6961 78.0451 31.8701C77.5093 32.3451 77.0638 32.5826 76.7087 32.5826C76.2826 32.5826 76.0696 32.3284 76.0696 31.8199C76.0696 31.6392 76.1018 31.4218 76.1664 31.1676C76.2374 30.9133 76.3343 30.6223 76.4569 30.2944C76.4763 30.2409 76.486 30.1974 76.486 30.164C76.486 30.1238 76.4957 30.0837 76.515 30.0435C76.6183 29.8094 76.7894 29.5484 77.0283 29.2608C77.0799 29.2005 77.1251 29.1704 77.1639 29.1704C77.2607 29.1704 77.3091 29.244 77.3091 29.3912C76.6829 30.348 76.3698 31.1575 76.3698 31.8199C76.3698 32.1009 76.4763 32.2414 76.6894 32.2414C76.9282 32.2414 77.2607 32.0708 77.6868 31.7296C77.9902 31.4887 78.2711 31.2177 78.5293 30.9167C78.7876 30.6089 79.02 30.2911 79.2266 29.9633C79.3686 29.7425 79.4816 29.5484 79.5655 29.3812C79.6559 29.2072 79.7108 29.0901 79.7302 29.0299C79.7625 28.9296 79.8076 28.8794 79.8657 28.8794C79.9884 28.8794 80.0498 28.9329 80.0498 29.04C80.0498 29.0935 80.0239 29.1905 79.9723 29.331C79.9271 29.4648 79.869 29.6254 79.798 29.8127C79.6947 30.087 79.5462 30.455 79.3525 30.9167C79.1588 31.3783 78.9167 31.9269 78.6262 32.5625C78.2646 33.352 77.9096 33.9977 77.5609 34.4995C77.3027 34.8808 77.0186 35.1986 76.7087 35.4529C76.4053 35.7071 76.1341 35.8342 75.8953 35.8342Z" fill="white"/>
<path d="M84.7475 33.4959C84.6249 33.4959 84.5635 33.439 84.5635 33.3253C84.5635 32.5358 85.009 31.3047 85.9 29.6321C85.9645 29.5116 86.0646 29.3343 86.2002 29.1002C85.9807 29.1269 85.7967 29.1771 85.6482 29.2507C85.5061 29.3176 85.4125 29.3511 85.3673 29.3511C85.2511 29.3511 85.193 29.2942 85.193 29.1805C85.193 29.0065 85.5933 28.856 86.3938 28.7289C86.5036 28.5348 86.6424 28.294 86.8103 28.0063C86.9846 27.7186 87.1912 27.3807 87.4301 26.9927C87.6044 26.705 87.7529 26.4541 87.8755 26.24C87.9982 26.0192 88.0983 25.8185 88.1757 25.6378C88.2016 25.5709 88.2435 25.5375 88.3016 25.5375C88.4243 25.5375 88.4856 25.6044 88.4856 25.7382C88.4856 25.785 88.4082 25.9422 88.2532 26.2099C88.1047 26.4708 87.8691 26.8722 87.5463 27.4142L86.7812 28.6887C87.0266 28.6619 87.2848 28.6419 87.5559 28.6285C87.8271 28.6151 88.1047 28.6084 88.3888 28.6084C88.9569 28.6084 89.9996 28.6586 91.5168 28.759C91.6459 28.4713 91.7815 28.1903 91.9235 27.9159C92.072 27.6349 92.2269 27.3573 92.3883 27.083C92.6208 26.6748 92.8241 26.357 92.9984 26.1296C93.1728 25.8954 93.3019 25.7449 93.3858 25.678C93.4697 25.611 93.5375 25.5776 93.5892 25.5776C93.686 25.5776 93.7344 25.6311 93.7344 25.7382C93.7344 25.7917 93.7054 25.8385 93.6473 25.8787C93.5311 25.9656 93.389 26.1229 93.2212 26.3504C93.0533 26.5778 92.8661 26.8756 92.6595 27.2435C92.3496 27.7855 92.0849 28.3007 91.8654 28.7891C92.0914 28.7891 92.2043 28.8459 92.2043 28.9597C92.2043 29.0065 92.1882 29.0467 92.1559 29.0801C92.1236 29.1136 92.0752 29.1269 92.0107 29.1202L91.7201 29.1002C91.0681 30.6056 90.742 31.6359 90.742 32.1912V32.412C90.742 32.4923 90.6871 32.5324 90.5774 32.5324C90.4741 32.5324 90.4225 32.4154 90.4225 32.1812C90.4225 31.5924 90.7388 30.5554 91.3715 29.0701C90.5839 29.0232 89.935 28.9898 89.425 28.9697C88.9214 28.9496 88.5566 28.9396 88.3307 28.9396C87.698 28.9396 87.1202 28.9697 86.5972 29.0299L86.1808 29.7826C85.8644 30.3647 85.6159 30.8866 85.4351 31.3482C85.2543 31.8032 85.1317 32.1444 85.0671 32.3719C85.0026 32.6328 84.9606 32.8335 84.9412 32.974C84.9219 33.1145 84.9057 33.245 84.8928 33.3654C84.8864 33.4524 84.8379 33.4959 84.7475 33.4959Z" fill="white"/>
<path d="M94.7101 32.4622C94.1872 32.4622 93.9257 32.1578 93.9257 31.5489C93.9257 31.2679 93.9902 30.9735 94.1194 30.6658C94.2485 30.358 94.4196 30.0737 94.6326 29.8127C94.8457 29.5451 95.0813 29.3277 95.3396 29.1604C95.6043 28.9931 95.8722 28.9095 96.1434 28.9095C96.3822 28.9095 96.5565 29.0032 96.6663 29.1905C96.7761 29.3778 96.8309 29.5852 96.8309 29.8127C96.8309 30.1138 96.7728 30.4216 96.6566 30.736C96.5404 31.0438 96.3822 31.3281 96.1821 31.5891C95.982 31.85 95.756 32.0608 95.5042 32.2213C95.2524 32.3819 94.9877 32.4622 94.7101 32.4622ZM94.7004 32.141C94.7392 32.141 94.7617 32.1377 94.7682 32.131C95.02 32.0976 95.2524 32.0039 95.4655 31.85C95.6785 31.6961 95.8625 31.5054 96.0175 31.278C96.1789 31.0438 96.3015 30.7929 96.3855 30.5253C96.4694 30.2576 96.5114 29.9934 96.5114 29.7324C96.5114 29.5786 96.4694 29.4581 96.3855 29.3711C96.3015 29.2842 96.195 29.2407 96.0659 29.2407C95.8787 29.2407 95.6785 29.321 95.4655 29.4815C95.2589 29.6421 95.062 29.8462 94.8747 30.0937C94.694 30.3413 94.5455 30.6022 94.4293 30.8765C94.313 31.1441 94.255 31.385 94.255 31.5991C94.255 31.9604 94.4034 32.141 94.7004 32.141Z" fill="white"/>
<path d="M98.1287 33.2048C98.006 33.2048 97.9447 33.1045 97.9447 32.9038C97.9447 32.6094 98.1029 32.0942 98.4192 31.3582C98.742 30.6223 99.2198 29.6588 99.8525 28.4679C99.6071 28.4679 99.3747 28.5014 99.1552 28.5683C98.9421 28.6285 98.8292 28.7054 98.8162 28.7991C98.8098 28.8259 98.7937 28.8526 98.7678 28.8794C98.7485 28.8995 98.7162 28.9095 98.671 28.9095C98.5677 28.9095 98.516 28.856 98.516 28.7489C98.516 28.575 98.6484 28.4311 98.9131 28.3174C99.1778 28.2036 99.549 28.1468 100.027 28.1468L100.695 27.0027C100.74 26.9291 100.789 26.8488 100.84 26.7618C100.892 26.6682 100.95 26.5678 101.015 26.4607C101.079 26.3671 101.153 26.3202 101.237 26.3202C101.289 26.3202 101.328 26.337 101.353 26.3704C101.379 26.3972 101.392 26.4273 101.392 26.4607C101.392 26.5611 101.25 26.8287 100.966 27.2636C100.611 27.8056 100.421 28.0999 100.395 28.1468C100.492 28.1468 100.637 28.1568 100.831 28.1769C101.024 28.1903 101.253 28.2137 101.518 28.2471C101.615 28.2538 101.663 28.304 101.663 28.3977C101.663 28.5047 101.605 28.5582 101.489 28.5582C101.444 28.5582 101.353 28.5516 101.218 28.5382C101.082 28.5181 100.937 28.5014 100.782 28.488C100.627 28.4746 100.495 28.4713 100.385 28.478L100.24 28.488C98.9292 30.8765 98.2772 32.3618 98.2836 32.9439L98.2933 33.0242V33.0443C98.2933 33.1513 98.2384 33.2048 98.1287 33.2048Z" fill="white"/>
<path d="M102.269 32.693C101.998 32.693 101.785 32.596 101.63 32.402C101.475 32.2079 101.397 31.9704 101.397 31.6894C101.397 31.2077 101.552 30.7126 101.862 30.2041C101.946 30.0636 102.043 29.9265 102.153 29.7927C102.262 29.6521 102.382 29.5183 102.511 29.3912C102.705 29.1972 102.908 29.0366 103.121 28.9095C103.334 28.7824 103.541 28.7188 103.741 28.7188C104.07 28.7188 104.235 28.8794 104.235 29.2005C104.235 29.602 104.009 29.9666 103.557 30.2944C103.137 30.5888 102.724 30.736 102.317 30.736C102.246 30.736 102.182 30.7327 102.124 30.726C102.072 30.7126 102.023 30.6992 101.978 30.6858C101.914 30.813 101.856 30.9769 101.804 31.1776C101.752 31.3783 101.726 31.5523 101.726 31.6995C101.726 32.141 101.914 32.3618 102.288 32.3618C102.592 32.3618 102.879 32.3083 103.15 32.2013C103.421 32.0875 103.744 31.8768 104.118 31.569C104.351 31.3817 104.525 31.2311 104.641 31.1174C104.758 31.0036 104.884 30.8832 105.019 30.7561C105.058 30.7293 105.093 30.716 105.126 30.716C105.158 30.716 105.19 30.726 105.222 30.7461C105.255 30.7661 105.271 30.7962 105.271 30.8364C105.271 30.91 105.206 31.0137 105.077 31.1475C104.967 31.2545 104.851 31.3683 104.729 31.4887C104.606 31.6024 104.412 31.763 104.148 31.9704C103.863 32.1979 103.554 32.3752 103.218 32.5023C102.882 32.6295 102.566 32.693 102.269 32.693ZM102.259 30.4149C102.466 30.4149 102.663 30.3814 102.85 30.3145C103.037 30.2476 103.215 30.1506 103.382 30.0235C103.757 29.7358 103.944 29.4648 103.944 29.2106C103.944 29.0968 103.876 29.04 103.741 29.04C103.483 29.04 103.182 29.2039 102.84 29.5317C102.672 29.6923 102.534 29.8395 102.424 29.9733C102.32 30.1004 102.224 30.2409 102.133 30.3948C102.172 30.4082 102.214 30.4149 102.259 30.4149Z" fill="white"/>
<path d="M106.729 32.7833C106.432 32.7833 106.203 32.6897 106.041 32.5023C105.886 32.3083 105.809 32.0541 105.809 31.7396C105.809 31.5121 105.848 31.2378 105.925 30.9167C106.061 30.3747 106.29 29.7458 106.613 29.0299C106.865 28.488 107.136 27.9561 107.426 27.4342C107.717 26.9057 108.036 26.3872 108.385 25.8787C108.94 25.0624 109.328 24.6543 109.547 24.6543C109.689 24.6543 109.76 24.6944 109.76 24.7747C109.76 24.8885 109.579 25.1728 109.218 25.6278L108.54 26.4808C107.952 27.2168 107.471 27.9695 107.097 28.7389C106.729 29.5083 106.442 30.2777 106.235 31.0471C106.177 31.2679 106.148 31.4753 106.148 31.6694C106.148 32.1778 106.348 32.4321 106.748 32.4321C106.89 32.4321 107.036 32.3886 107.184 32.3016C107.333 32.2213 107.413 32.1812 107.426 32.1812C107.504 32.1812 107.542 32.2381 107.542 32.3518C107.542 32.4522 107.507 32.5291 107.436 32.5826C107.216 32.7164 106.981 32.7833 106.729 32.7833Z" fill="white"/>
</svg>
